# xmcd
#
# Track frame offsets:
#	150
#	35075
#	64850
#	92842
#	122639
#	153671
#	183851
#	210117
#	240818
#	268720
#	303742
#
# Disc length: 4595 seconds
#
# Revision: 0
# Processed by: cddbd v1.5.1PL0 Copyright (c) Steve Scherf et al.
# Submitted via: audiograbber 1.83.01
#
DISCID=8f11f10b
DTITLE=compiled and mixed by DJ ZigZag - Beach sessions vol.1 CD2:sunrise
DYEAR=2005
DGENRE=A Cappella
TTITLE0=The nature soul - river benue
TTITLE1=Onda - waiting for you love (FK Dub)
TTITLE2=Miguel Migs - take me to paradise
TTITLE3=Maurizio Ruggiero - uncomfortably numb
TTITLE4=Dave Storm - cabrio horse
TTITLE5=Julius Papp - the awakening
TTITLE6=Quentin Harris - Episode 2.2
TTITLE7=DJ Gregory - The Joburg Theme
TTITLE8=4 hundred birds - Jaguar
TTITLE9=Cirque Du Soleil - Africa (Quickisound RMX)
TTITLE10=Ustad Sultan Khan - Sayaji (Joe Claussell RMX)
EXTD=
EXTT0=
EXTT1=
EXTT2=
EXTT3=
EXTT4=
EXTT5=
EXTT6=
EXTT7=
EXTT8=
EXTT9=
EXTT10=
PLAYORDER=
